# xmcd
#
# Track frame offsets:
#	150
#	23910
#	47015
#	65500
#	83242
#	93955
#	113633
#	137501
#	149363
#	153475
#	168496
#
# Disc length: 2491 seconds
#
# Revision: 0
# Processed by: cddbd v1.5PL3 Copyright (c) Steve Scherf et al.
# Submitted via: dBpowerAMP V4.0
#
DISCID=8c09b90b
DTITLE=Ted Ramirez and the Santa Cruz River Band - Hard Road Traveling
DYEAR=1900
DGENRE=Folk
TTITLE0=Yonder in the Minor Key
TTITLE1=Red-tailed Hawk
TTITLE2=Rambling Boy
TTITLE3=Sunlight
TTITLE4=My Grandson
TTITLE5=Across the Border
TTITLE6=La Llorona
TTITLE7=El Pastor
TTITLE8=The Hard Road
TTITLE9=Way of the World
TTITLE10=Wandering Line
EXTD=
EXTT0=
EXTT1=
EXTT2=
EXTT3=
EXTT4=
EXTT5=
EXTT6=
EXTT7=
EXTT8=
EXTT9=
EXTT10=
PLAYORDER=
